HIERARCHY
ROOT joint_Root
{
	OFFSET 0.0 0.0 0.0
	CHANNELS 6 Xposition Yposition Zposition Zrotation Xrotation Yrotation 
	JOINT Hips
	{
		OFFSET 4.5925 91.4895 -427.239
		CHANNELS 6 Xposition Yposition Zposition Zrotation Xrotation Yrotation 
		JOINT Spine
		{
			OFFSET 15.7357 0.0 0.0
			CHANNELS 6 Xposition Yposition Zposition Zrotation Xrotation Yrotation 
			JOINT Chest
			{
				OFFSET 8.98455 -0.406207 0.0
				CHANNELS 6 Xposition Yposition Zposition Zrotation Xrotation Yrotation 
				JOINT Neck
				{
					OFFSET 16.3773 0.0 0.0
					CHANNELS 6 Xposition Yposition Zposition Zrotation Xrotation Yrotation 
					JOINT Head
					{
						OFFSET 6.45672 0.0 0.0
						CHANNELS 6 Xposition Yposition Zposition Zrotation Xrotation Yrotation 
						End Site
						{
							OFFSET 0.0 0.0 0.0
						}
					}
				}
				JOINT Shoulder_L
				{
					OFFSET 12.9942 -0.242716 4.98039
					CHANNELS 6 Xposition Yposition Zposition Zrotation Xrotation Yrotation 
					JOINT UpperArm_L
					{
						OFFSET 5.34809 0.0 0.0
						CHANNELS 6 Xposition Yposition Zposition Zrotation Xrotation Yrotation 
						JOINT LowerArm_L
						{
							OFFSET 24.3286 1.87007e-05 0.0
							CHANNELS 6 Xposition Yposition Zposition Zrotation Xrotation Yrotation 
							JOINT Hand_L
							{
								OFFSET 22.2916 0.0 0.0
								CHANNELS 6 Xposition Yposition Zposition Zrotation Xrotation Yrotation 
								End Site
								{
									OFFSET 0.0 0.0 0.0
								}
							}
						}
					}
				}
				JOINT Shoulder_R
				{
					OFFSET 12.9945 -0.242716 -4.98039
					CHANNELS 6 Xposition Yposition Zposition Zrotation Xrotation Yrotation 
					JOINT UpperArm_R
					{
						OFFSET -5.34813 0.0 0.0
						CHANNELS 6 Xposition Yposition Zposition Zrotation Xrotation Yrotation 
						JOINT LowerArm_R
						{
							OFFSET -24.3289 0.000322201 0.0
							CHANNELS 6 Xposition Yposition Zposition Zrotation Xrotation Yrotation 
							JOINT Hand_R
							{
								OFFSET -22.2915 -0.000108084 0.0
								CHANNELS 6 Xposition Yposition Zposition Zrotation Xrotation Yrotation 
								End Site
								{
									OFFSET 0.0 0.0 0.0
								}
							}
						}
					}
				}
			}
		}
		JOINT UpperLeg_L
		{
			OFFSET -2.19248 -6.46944 0.0
			CHANNELS 6 Xposition Yposition Zposition Zrotation Xrotation Yrotation 
			JOINT LowerLeg_L
			{
				OFFSET 39.0811 0.0 -1.23785e-05
				CHANNELS 6 Xposition Yposition Zposition Zrotation Xrotation Yrotation 
				JOINT Foot_L
				{
					OFFSET 40.9854 0.0 -1.26872e-05
					CHANNELS 6 Xposition Yposition Zposition Zrotation Xrotation Yrotation 
					JOINT Toes_L
					{
						OFFSET 11.7543 0.0 0.0
						CHANNELS 6 Xposition Yposition Zposition Zrotation Xrotation Yrotation 
						End Site
						{
							OFFSET 0.0 0.0 0.0
						}
					}
				}
			}
		}
		JOINT UpperLeg_R
		{
			OFFSET -2.19251 6.46944 0.0
			CHANNELS 6 Xposition Yposition Zposition Zrotation Xrotation Yrotation 
			JOINT LowerLeg_R
			{
				OFFSET -39.0811 -0.00228153 -0.0401928
				CHANNELS 6 Xposition Yposition Zposition Zrotation Xrotation Yrotation 
				JOINT Foot_R
				{
					OFFSET -40.9854 0.0 0.0
					CHANNELS 6 Xposition Yposition Zposition Zrotation Xrotation Yrotation 
					JOINT Toes_R
					{
						OFFSET -11.7543 0.0 0.0
						CHANNELS 6 Xposition Yposition Zposition Zrotation Xrotation Yrotation 
						End Site
						{
							OFFSET 0.0 0.0 0.0
						}
					}
				}
			}
		}
	}
}
MOTION
Frames:	4
Frame Time:	0.0333333
0.000000 0.000000 0.000000 0.000000 0.000000 -0.000000 8.314920 86.966300 -31.662200 90.924100 -13.912800 4.119700 15.735700 0.000005 -0.000001 104.352000 83.716100 -105.540000 8.984550 -0.406207 -0.000000 4.448680 3.144330 -2.495930 16.377300 -0.000001 -0.000001 -2.891130 -2.437810 1.071170 6.456720 -0.000001 -0.000000 -10.770200 -3.946380 -0.684065 12.994200 -0.242716 4.980390 -91.152600 3.478380 -71.653600 5.348090 -0.000007 -0.000001 -68.051900 18.491700 8.565020 24.328600 0.000019 0.000005 -0.000094 30.264500 -0.000003 22.291600 -0.000001 0.000005 11.075500 4.945270 8.463140 12.994500 -0.242716 -4.980390 89.003700 8.657190 -83.409400 -5.348130 -0.000001 -0.000004 -50.385700 28.690100 -38.215800 -24.328900 0.000322 -0.000009 1.562570 1.054640 -56.009500 -22.291500 -0.000108 -0.000004 22.412400 5.470530 -5.388800 -2.192480 -6.469440 -0.000000 -177.133000 -9.671660 -27.031600 39.081100 -0.000007 -0.000012 -0.147514 0.149788 44.562300 40.985400 -0.000006 -0.000013 -0.948835 5.466630 -63.592000 11.754300 -0.000000 0.000003 -0.000078 -0.000835 -16.609800 -2.192510 6.469440 -0.000001 171.217000 2.968960 -174.155000 -39.081100 -0.002282 -0.040193 0.115458 -0.109611 45.667700 -40.985400 0.000008 0.000006 12.342300 8.468370 -66.260400 -11.754300 -0.000006 -0.000006 -0.189085 -0.626659 -43.353300
0.000000 0.000000 0.000000 0.000000 0.000000 -0.000000 9.103230 87.073400 -27.384500 91.274400 -13.840100 5.514580 15.735700 0.000005 -0.000001 104.867000 83.355400 -106.117000 8.984550 -0.406207 -0.000000 5.124300 3.431460 -2.651970 16.377300 -0.000001 -0.000001 -2.375800 -2.604310 0.658282 6.456720 -0.000001 -0.000000 -10.515600 -4.011150 -2.364080 12.994200 -0.242716 4.980390 -91.229700 3.692950 -71.569300 5.348090 -0.000007 -0.000001 -67.770300 18.535000 5.321010 24.328600 0.000019 0.000005 0.000004 31.494100 -0.000003 22.291600 -0.000001 0.000005 10.272200 4.917710 9.022290 12.994500 -0.242716 -4.980390 89.057700 8.173110 -83.400800 -5.348130 -0.000001 -0.000004 -53.058800 28.284500 -35.142700 -24.328900 0.000322 -0.000009 1.781970 1.194000 -56.203100 -22.291500 -0.000108 -0.000004 22.955900 5.483340 -5.876830 -2.192480 -6.469440 -0.000000 -178.102000 -7.692000 -23.370500 39.081100 -0.000007 -0.000012 -0.219904 0.211464 46.121500 40.985400 -0.000006 -0.000013 -0.470425 3.474580 -67.654200 11.754300 -0.000000 0.000003 -0.000096 -0.000989 -16.615500 -2.192510 6.469440 -0.000001 169.911000 2.767950 -177.542000 -39.081100 -0.002282 -0.040193 0.171568 -0.119411 54.650200 -40.985400 0.000008 0.000006 9.531070 8.355980 -55.545800 -11.754300 -0.000006 -0.000006 -0.154999 -0.564514 -40.479300
0.000000 0.000000 0.000000 0.000000 0.000000 -0.000000 9.659480 87.522800 -23.587500 91.387100 -14.100100 6.152740 15.735700 0.000005 -0.000001 105.444000 83.302600 -106.677000 8.984550 -0.406207 -0.000000 5.193030 3.587030 -2.626930 16.377300 -0.000001 -0.000001 -1.821710 -2.353960 0.297322 6.456720 -0.000001 -0.000000 -9.967660 -3.525390 -4.189800 12.994200 -0.242716 4.980390 -91.350300 4.014430 -71.392100 5.348090 -0.000007 -0.000001 -67.481400 18.899000 2.217710 24.328600 0.000019 0.000005 0.671064 29.238900 -1.375290 22.291600 -0.000001 0.000005 9.383180 4.964120 8.071420 12.994500 -0.242716 -4.980390 89.077800 7.968450 -83.376400 -5.348130 -0.000001 -0.000004 -55.245400 29.072300 -32.376700 -24.328900 0.000322 -0.000009 0.832992 0.615664 -53.556500 -22.291500 -0.000108 -0.000004 22.920800 5.482870 -5.858600 -2.192480 -6.469440 -0.000000 -178.874000 -7.575970 -19.572300 39.081100 -0.000007 -0.000012 -0.233958 0.230146 45.471200 40.985400 -0.000006 -0.000013 0.239110 2.819890 -70.284000 11.754300 -0.000000 0.000003 -0.000121 -0.001206 -16.623600 -2.192510 6.469440 -0.000001 169.762000 2.057500 176.994000 -39.081100 -0.002282 -0.040193 0.226620 -0.113471 63.077000 -40.985400 0.000008 0.000006 5.876080 4.917170 -44.538300 -11.754300 -0.000006 -0.000006 -0.032358 -0.228072 -25.922600
0.000000 0.000000 0.000000 0.000000 0.000000 -0.000000 9.911290 88.124900 -20.138500 91.163100 -13.984600 6.393250 15.735700 0.000005 -0.000001 103.856000 83.375400 -104.995000 8.984550 -0.406207 -0.000000 5.136660 3.192510 -2.419310 16.377300 -0.000001 -0.000001 -1.533780 -1.875790 -0.095836 6.456720 -0.000001 -0.000000 -9.401440 -2.613570 -5.532450 12.994200 -0.242716 4.980390 -91.498200 4.464520 -71.427500 5.348090 -0.000007 -0.000001 -66.942800 19.930900 -0.761372 24.328600 0.000019 0.000005 2.642230 25.645800 -6.088790 22.291600 -0.000001 0.000005 9.299750 5.046280 6.320020 12.994500 -0.242716 -4.980390 89.057500 8.020870 -83.275600 -5.348130 -0.000001 -0.000004 -56.904200 30.657300 -30.338800 -24.328900 0.000322 -0.000009 0.245451 0.219754 -48.304000 -22.291500 -0.000108 -0.000004 22.007400 5.482090 -5.828790 -2.192480 -6.469440 -0.000000 -179.075000 -8.037080 -15.727400 39.081100 -0.000007 -0.000012 -0.222425 0.233757 43.577600 40.985400 -0.000006 -0.000013 0.989081 3.106530 -72.001300 11.754300 -0.000000 0.000003 -0.000117 -0.001175 -16.622500 -2.192510 6.469440 -0.000001 170.501000 3.072110 172.577000 -39.081100 -0.002282 -0.040193 0.232267 -0.088463 68.890300 -40.985400 0.000008 0.000006 6.946920 -1.002450 -45.267000 -11.754300 -0.000006 -0.000006 -0.026509 -0.200991 -24.799400
